<svg width="160" height="160" viewBox="0 0 160 160" xmlns="http://www.w3.org/2000/svg">
  <rect width="160" height="160" rx="36" fill="#10b981"/>

  <!-- MI text -->
  <text x="78" y="122" font-family="system-ui, sans-serif" font-size="56px" font-weight="500" fill="#0a0a0a" text-anchor="middle" dominant-baseline="middle">MI</text>

  <!-- Trunk -->
  <line x1="102" y1="90" x2="102" y2="65" stroke="#0a0a0a" stroke-width="2" stroke-linecap="round"/>

  <!-- Mid branches -->
  <line x1="102" y1="78" x2="88" y2="67" stroke="#0a0a0a" stroke-width="1.8" stroke-linecap="round"/>
  <line x1="102" y1="78" x2="116" y2="67" stroke="#0a0a0a" stroke-width="1.8" stroke-linecap="round"/>

  <!-- Upper branches -->
  <line x1="102" y1="70" x2="90" y2="59" stroke="#0a0a0a" stroke-width="1.5" stroke-linecap="round"/>
  <line x1="102" y1="70" x2="114" y2="59" stroke="#0a0a0a" stroke-width="1.5" stroke-linecap="round"/>

  <!-- Sub-branches left -->
  <line x1="88" y1="67" x2="80" y2="59" stroke="#0a0a0a" stroke-width="1.3" stroke-linecap="round"/>
  <line x1="88" y1="67" x2="87" y2="57" stroke="#0a0a0a" stroke-width="1.3" stroke-linecap="round"/>

  <!-- Sub-branches right -->
  <line x1="116" y1="67" x2="124" y2="59" stroke="#0a0a0a" stroke-width="1.3" stroke-linecap="round"/>
  <line x1="116" y1="67" x2="117" y2="57" stroke="#0a0a0a" stroke-width="1.3" stroke-linecap="round"/>

  <!-- Top sub-branches left -->
  <line x1="90" y1="59" x2="83" y2="51" stroke="#0a0a0a" stroke-width="1.1" stroke-linecap="round"/>
  <line x1="90" y1="59" x2="91" y2="50" stroke="#0a0a0a" stroke-width="1.1" stroke-linecap="round"/>

  <!-- Top sub-branches right -->
  <line x1="114" y1="59" x2="121" y2="51" stroke="#0a0a0a" stroke-width="1.1" stroke-linecap="round"/>
  <line x1="114" y1="59" x2="113" y2="50" stroke="#0a0a0a" stroke-width="1.1" stroke-linecap="round"/>

  <!-- Top tip -->
  <line x1="102" y1="65" x2="102" y2="53" stroke="#0a0a0a" stroke-width="1.5" stroke-linecap="round"/>

  <!-- Nodes mid tier -->
  <circle cx="80" cy="58" r="3" fill="none" stroke="#0a0a0a" stroke-width="1.8"/>
  <circle cx="87" cy="56" r="3" fill="none" stroke="#0a0a0a" stroke-width="1.8"/>
  <circle cx="124" cy="58" r="3" fill="none" stroke="#0a0a0a" stroke-width="1.8"/>
  <circle cx="117" cy="56" r="3" fill="none" stroke="#0a0a0a" stroke-width="1.8"/>

  <!-- Nodes top tier -->
  <circle cx="83" cy="50" r="2.5" fill="none" stroke="#333333" stroke-width="1.5"/>
  <circle cx="91" cy="49" r="2.5" fill="none" stroke="#333333" stroke-width="1.5"/>
  <circle cx="121" cy="50" r="2.5" fill="none" stroke="#333333" stroke-width="1.5"/>
  <circle cx="113" cy="49" r="2.5" fill="none" stroke="#333333" stroke-width="1.5"/>

  <!-- Top solid node -->
  <circle cx="102" cy="52" r="3.5" fill="#0a0a0a"/>

  <!-- Base node -->
  <circle cx="102" cy="90" r="3" fill="#0a0a0a" opacity="0.6"/>
</svg>